<mxfile host="app.diagrams.net" modified="2024-06-20T14:20:34.183Z" agent="Mozilla/5.0 (Windows NT 10.0; Win64; x64) AppleWebKit/537.36 (KHTML, like Gecko) Chrome/126.0.0.0 Safari/537.36" version="24.4.9" etag="OXzcODyXTNyhay2KxqBD" type="github">
  <diagram name="第 1 页" id="8O0CL8YDJH87VzER2SYq">
    <mxGraphModel>
      <root>
        <mxCell id="0" />
        <mxCell id="1" parent="0" />
      </root>
    </mxGraphModel>
  </diagram>
</mxfile>
